<?xml version="1.0" encoding="utf-8"?>
<!-- Generator: Adobe Illustrator 25.1.0, SVG Export Plug-In . SVG Version: 6.00 Build 0)  -->
<svg version="1.1" id="Laag_1" xmlns="http://www.w3.org/2000/svg" xmlns:xlink="http://www.w3.org/1999/xlink" x="0px" y="0px"
	 viewBox="0 0 1000 300" style="enable-background:new 0 0 1000 300;" xml:space="preserve">
<style type="text/css">
	.st0{fill:#FFFFFF;}
	.st1{fill:#00B3BF;}
</style>
<path class="st0" d="M168.1,214.48c-0.7,1.16-1.98,2.21-3.84,3.14c-19.86,10.09-40.65,15.13-62.37,15.13
	c-15.67,0-29.99-3.45-42.94-10.36c-12.96-6.9-23.16-16.64-30.6-29.21c-7.45-12.57-11.17-27-11.17-43.29c0-16.91,3.8-31.84,11.4-44.8
	c7.6-12.95,18-23,31.19-30.14c13.18-7.14,28-10.71,44.45-10.71c11.32,0,22.11,1.71,32.35,5.12c10.24,3.41,19.32,7.91,27.23,13.5
	c2.33,1.4,3.49,2.95,3.49,4.65c0,1.24-0.55,2.64-1.63,4.19l-9.31,14.2c-1.4,2.02-2.87,3.03-4.42,3.03c-1.09,0-2.48-0.47-4.19-1.4
	c-13.96-8.69-28.47-13.03-43.52-13.03c-10.55,0-19.86,2.33-27.93,6.98c-8.07,4.65-14.31,11.1-18.73,19.32
	c-4.42,8.23-6.63,17.61-6.63,28.16c0,10.55,2.29,19.9,6.87,28.04c4.58,8.15,10.82,14.47,18.73,18.97c7.91,4.5,16.76,6.75,26.53,6.75
	c11.79,0,21.88-1.7,30.26-5.12c1.4-0.62,2.29-1.24,2.68-1.86c0.38-0.62,0.58-1.63,0.58-3.03v-36.77c0-2.02,0.43-3.45,1.28-4.31
	c0.85-0.85,2.29-1.28,4.3-1.28h21.41c2.01,0,3.45,0.43,4.3,1.28c0.85,0.85,1.28,2.29,1.28,4.31v53.53
	C169.15,211.65,168.8,213.32,168.1,214.48z"/>
<path class="st1" d="M196.79,108.56c5.94-12.95,14.1-23.08,24.49-30.37c10.39-7.29,22.08-10.94,35.07-10.94s24.68,3.61,35.07,10.82
	c10.39,7.21,18.52,17.22,24.4,30.02c5.87,12.8,8.81,27.19,8.81,43.17c0,16.14-2.97,30.64-8.91,43.52
	c-5.94,12.88-14.13,22.93-24.58,30.14c-10.45,7.22-22.24,10.82-35.34,10.82c-12.87,0-24.46-3.57-34.79-10.71
	c-10.33-7.13-18.43-17.06-24.31-29.79c-5.88-12.72-8.81-27.07-8.81-43.06C187.89,136.06,190.86,121.52,196.79,108.56z
	 M220.17,179.54c3.59,8.15,8.5,14.51,14.75,19.08c6.24,4.58,13.26,6.87,21.06,6.87c7.67,0,14.69-2.29,21.06-6.87
	c6.37-4.58,11.41-10.98,15.12-19.2c3.71-8.22,5.57-17.46,5.57-27.7c0-10.55-1.83-19.97-5.47-28.28c-3.65-8.3-8.66-14.7-15.03-19.2
	c-6.37-4.5-13.39-6.75-21.06-6.75c-7.79,0-14.81,2.29-21.06,6.87c-6.25,4.58-11.2,10.98-14.84,19.2
	c-3.65,8.23-5.47,17.61-5.47,28.16C214.79,162.13,216.58,171.4,220.17,179.54z"/>
<rect x="521.83" y="70.75" class="st0" width="54" height="160"/>
<rect x="774.83" y="70.75" class="st0" width="54" height="160"/>
<polygon class="st0" points="982.83,70.75 843.83,70.75 843.83,102.75 886.83,102.75 886.83,231.75 940.83,231.75 940.83,102.75 
	982.83,102.75 "/>
<polygon class="st0" points="604.83,70.75 656.83,70.75 694.83,130.75 694.83,70.75 747.83,70.75 747.83,230.75 694.83,230.75 
	657.83,170.75 657.83,230.75 604.83,230.75 "/>
<polygon class="st1" points="479.83,107.75 500.83,107.75 500.83,166.75 340.83,166.75 340.83,143.75 480.33,143.75 "/>
</svg>
